<?xml version="1.0" encoding="UTF-8"?>
<svg width="37px" height="37px" viewBox="0 0 37 37" version="1.1" xmlns="http://www.w3.org/2000/svg" xmlns:xlink="http://www.w3.org/1999/xlink">
    <!-- Generator: Sketch 45.2 (43514) - http://www.bohemiancoding.com/sketch -->
    <title>Group 7</title>
    <desc>Created with Sketch.</desc>
    <defs>
        <linearGradient x1="50%" y1="155.395634%" x2="50%" y2="8.5725466%" id="linearGradient-1">
            <stop stop-color="#9BFFF0" offset="0%"></stop>
            <stop stop-color="#47BFE2" offset="100%"></stop>
        </linearGradient>
        <radialGradient cx="50%" cy="-33.7738716%" fx="50%" fy="-33.7738716%" r="166.323023%" id="radialGradient-2">
            <stop stop-color="#7CA7FC" offset="0%"></stop>
            <stop stop-color="#6B53F0" offset="100%"></stop>
        </radialGradient>
    </defs>
    <g id="Page-1" stroke="none" stroke-width="1" fill="none" fill-rule="evenodd">
        <g id="Artboard" transform="translate(-21.000000, -250.000000)" stroke-width="7">
            <g id="Group-8" transform="translate(20.000000, 249.000000)">
                <g id="Group-7" transform="translate(19.445436, 19.445436) rotate(45.000000) translate(-19.445436, -19.445436) translate(2.945436, 8.445436)">
                    <path d="M22,22 C28.0751322,22 33,17.0751322 33,11 C33,4.92486775 28.0751322,0 22,0 C15.9248678,0 11,4.92486775 11,11 C11,12.888497 11.4759,14.6658416 12.3143157,16.2186495 C13.9847652,19.3124456 17.0942608,21.5149183 20.7460453,21.9293105 C21.1575712,21.976009 21.5759839,22 22,22 Z" id="Oval-4" stroke="url(#linearGradient-1)"></path>
                    <circle id="Oval-4-Copy" stroke="url(#radialGradient-2)" cx="11" cy="11" r="11"></circle>
                    <path d="M27.3870368,20.5928522 C30.7371398,18.7074991 33,15.1180092 33,11 C33,4.92486775 28.0751322,0 22,0 C15.9248678,0 11,4.92486775 11,11" id="Oval-4" stroke="url(#linearGradient-1)"></path>
                </g>
            </g>
        </g>
    </g>
</svg>